<?xml version="1.0" encoding="UTF-8"?>
<svg width="1047px" height="350px" viewBox="0 0 1047 350" version="1.1" xmlns="http://www.w3.org/2000/svg" xmlns:xlink="http://www.w3.org/1999/xlink">
    <!-- Generator: Sketch 48.2 (47327) - http://www.bohemiancoding.com/sketch -->
    <title>logo</title>
    <desc>Created with Sketch.</desc>
    <defs></defs>
    <g id="Symbols" stroke="none" stroke-width="1" fill="none" fill-rule="evenodd">
        <g id="logo">
            <g id="text_with_eagle" transform="translate(389.000000, 0.000000)">
                <path d="M86.976,134 C99.6480634,134 110.831952,137.359966 120.528,144.08 C130.224048,150.800034 137.663974,159.775944 142.848,171.008 C148.032026,182.240056 150.624,194.383935 150.624,207.44 C150.624,220.880067 147.792028,233.215944 142.128,244.448 C136.463972,255.680056 128.784048,264.559967 119.088,271.088 C109.391952,277.616033 98.6880586,280.88 86.976,280.88 C78.3359568,280.88 69.9840403,279.104018 61.92,275.552 C53.8559597,271.999982 47.6160221,267.056032 43.2,260.72 L40.32,278 L17.28,278 L17.28,62 L43.2,62 L43.2,153.296 C48.3840259,147.34397 54.8639611,142.640017 62.64,139.184 C70.4160389,135.727983 78.5279578,134 86.976,134 Z M83.808,257.84 C95.9040605,257.84 105.647963,252.992048 113.04,243.296 C120.432037,233.599952 124.128,221.648071 124.128,207.44 C124.128,192.847927 120.432037,180.800048 113.04,171.296 C105.647963,161.791952 95.9040605,157.04 83.808,157.04 C71.9039405,157.04 61.9200403,161.407956 53.856,170.144 C45.7919597,178.880044 41.76,191.311919 41.76,207.44 C41.76,224.144084 45.7439602,236.719958 53.712,245.168 C61.6800398,253.616042 71.7119395,257.84 83.808,257.84 Z M245.6,280.88 C229.471919,280.88 215.696057,277.568033 204.272,270.944 C192.847943,264.319967 184.16003,255.344057 178.208,244.016 C172.25597,232.687943 169.28,220.112069 169.28,206.288 C169.28,193.039934 172.015973,180.896055 177.488,169.856 C182.960027,158.815945 190.927948,150.080032 201.392,143.648 C211.856052,137.215968 224.191929,134 238.4,134 C256.44809,134 271.087944,139.279947 282.32,149.84 C293.552056,160.400053 299.168,174.991907 299.168,193.616 C299.168,198.416024 298.784004,203.023978 298.016,207.44 L195.776,207.44 C197.504009,225.680091 203.071953,238.639962 212.48,246.32 C221.888047,254.000038 233.983926,257.84 248.768,257.84 C263.552074,257.84 277.087939,255.056028 289.376,249.488 L292.832,269.936 C276.511918,277.232036 260.768076,280.88 245.6,280.88 Z M272.004,189.584 C272.004,179.407949 269.124029,171.440029 263.364,165.68 C257.603971,159.919971 248.964058,157.04 237.444,157.04 C226.307944,157.04 217.572032,159.775973 211.236,165.248 C204.899968,170.720027 200.388013,178.831946 197.7,189.584 L272.004,189.584 Z M357.96,280.88 C344.903935,280.88 334.39204,277.040038 326.424,269.36 C318.45596,261.679962 314.472,251.88806 314.472,239.984 C314.472,222.127911 322.919916,209.360038 339.816,201.68 C356.712084,193.999962 376.391888,189.968002 398.856,189.584 C398.856,176.911937 396.408024,168.320023 391.512,163.808 C386.615976,159.295977 378.792054,157.04 368.04,157.04 C362.08797,157.04 356.13603,157.951991 350.184,159.776 C344.23197,161.600009 337.800035,164.911976 330.888,169.712 L327.144,148.688 C332.904029,144.271978 340.007958,140.720013 348.456,138.032 C356.904042,135.343987 365.735954,134 374.952,134 C387.04806,134 396.695964,136.111979 403.896,140.336 C411.096036,144.560021 416.375983,151.567951 419.736,161.36 C423.096017,171.152049 424.776,184.591915 424.776,201.68 L424.776,230.48 C424.776,238.160038 425.111997,243.96798 425.784,247.904 C426.456003,251.84002 427.943988,254.863989 430.248,256.976 C432.552012,259.088011 436.103976,260.144 440.904,260.144 L443.496,260.144 L439.464,280.88 L437.448,280.88 C429.38396,280.88 423.048023,280.112008 418.44,278.576 C413.831977,277.039992 410.328012,274.832014 407.928,271.952 C405.527988,269.071986 403.272011,265.136025 401.16,260.144 C389.25594,273.968069 374.856084,280.88 357.96,280.88 Z M362.856,260.144 C369.768035,260.144 376.439968,258.416017 382.872,254.96 C389.304032,251.503983 394.631979,246.896029 398.856,241.136 L398.856,207.44 C378.119896,208.208004 363.288045,210.943976 354.36,215.648 C345.431955,220.352024 340.968,227.983947 340.968,238.544 C340.968,245.840036 342.93598,251.263982 346.872,254.816 C350.80802,258.368018 356.135966,260.144 362.856,260.144 Z M520.524,350 C500.5559,350 484.380062,346.352036 471.996,339.056 C459.611938,331.759964 453.42,321.392067 453.42,307.952 C453.42,293.167926 461.579918,282.128036 477.9,274.832 C468.683954,270.223977 464.076,264.272036 464.076,256.976 C464.076,247.759954 469.643944,240.944022 480.78,236.528 C472.907961,231.727976 466.860021,225.200041 462.636,216.944 C458.411979,208.687959 456.3,199.376052 456.3,189.008 C456.3,178.639948 458.651976,169.280042 463.356,160.928 C468.060024,152.575958 474.779956,146.000024 483.516,141.2 C492.252044,136.399976 502.57194,134 514.476,134 C527.148063,134 538.667948,137.647964 549.036,144.944 C559.212051,139.183971 570.923934,136.304 584.172,136.304 L586.476,136.304 L583.308,153.584 L576.684,153.584 C574.955991,153.584 572.460016,153.775998 569.196,154.16 C565.931984,154.544002 563.052012,155.023997 560.556,155.6 C564.58802,160.208023 567.659989,165.391971 569.772,171.152 C571.884011,176.912029 572.94,182.863969 572.94,189.008 C572.94,199.760054 570.588024,209.407957 565.884,217.952 C561.179976,226.496043 554.412044,233.215976 545.58,238.112 C536.747956,243.008024 526.38006,245.456 514.476,245.456 C507.563965,245.456 501.228029,244.592009 495.468,242.864 C491.051978,244.400008 488.844,246.895983 488.844,250.352 C488.844,254.960023 494.123947,258.031992 504.684,259.568 L542.412,265.616 C558.156079,268.112012 570.05996,272.623967 578.124,279.152 C586.18804,285.680033 590.22,294.703942 590.22,306.224 C590.22,320.624072 584.028062,331.519963 571.644,338.912 C559.259938,346.304037 542.220108,350 520.524,350 Z M514.476,224.72 C525.228054,224.72 533.531971,221.504032 539.388,215.072 C545.244029,208.639968 548.172,200.048054 548.172,189.296 C548.172,178.927948 545.244029,170.576032 539.388,164.24 C533.531971,157.903968 525.228054,154.736 514.476,154.736 C503.723946,154.736 495.468029,157.903968 489.708,164.24 C483.947971,170.576032 481.068,178.927948 481.068,189.296 C481.068,200.048054 483.947971,208.639968 489.708,215.072 C495.468029,221.504032 503.723946,224.72 514.476,224.72 Z M522.828,326.96 C536.076066,326.96 546.251964,325.232017 553.356,321.776 C560.460036,318.319983 564.012,313.328033 564.012,306.8 C564.012,301.807975 561.852022,297.824015 557.532,294.848 C553.211978,291.871985 546.732043,289.520009 538.092,287.792 L497.772,280.88 C492.011971,283.568013 487.308018,286.87998 483.66,290.816 C480.011982,294.75202 478.188,299.119976 478.188,303.92 C478.188,311.792039 482.123961,317.599981 489.996,321.344 C497.868039,325.088019 508.81193,326.96 522.828,326.96 Z M643.344,280.88 C630.671937,280.88 621.408029,277.616033 615.552,271.088 C609.695971,264.559967 606.768,256.496048 606.768,246.896 L606.768,62 L632.688,62 L632.688,231.92 C632.688,240.368042 633.215995,246.511981 634.272,250.352 C635.328005,254.192019 637.391985,256.783993 640.464,258.128 C643.536015,259.472007 648.527965,260.144 655.44,260.144 L651.696,280.88 L643.344,280.88 Z" id="beagl" fill="#000000"></path>
                <g id="eagle" transform="translate(240.500000, 95.500000) rotate(55.000000) translate(-240.500000, -95.500000) translate(223.000000, 79.000000)" fill="#453A39">
                    <path d="M30.9482461,26.7695635 C30.7431937,26.4725635 30.7058115,26.0643481 30.7058115,26.0643481 C30.7058115,26.0643481 31.4519895,26.5283536 31.6198429,26.7137735 C31.7875131,26.8993757 31.8062042,27.4745967 31.8062042,27.4745967 C31.8062042,27.4745967 31.1534817,27.0663812 30.9482461,26.7695635 Z M34.660445,29.4416519 L33.1336387,27.7097901 C33.1336387,27.7097901 33.0416492,26.3739282 32.4706545,25.3841105 C31.8994764,24.3946575 27.8213351,21.5741602 25.583534,20.634116 C25.583534,20.634116 24.7378534,24.9882928 21.654555,24.542884 C21.654555,24.542884 24.2903665,23.2562486 24.5886911,18.9514807 C24.887199,14.6467127 22.1518848,12.3706243 20.0134031,11.1333978 C17.8747382,9.89635359 0,0 0,0 C0,0 0.542958115,5.75840884 3.0545288,7.17485635 C9.60685864,10.8701271 14.2941099,13.4096685 14.2941099,13.4096685 C14.2941099,13.4096685 15.3882723,14.2507127 15.7362565,15.5867569 L2.30835079,8.56030939 C2.30835079,8.56030939 2.85534031,12.8650773 4.29767016,14.3991215 L15.3384293,19.842116 C15.3384293,19.842116 14.990445,20.634116 14.4929319,20.8319337 L4.19835079,15.7847569 C4.19835079,15.7847569 4.49667539,20.3369337 7.72931937,22.7120221 C7.72931937,22.7120221 10.4149738,24.5924751 12.5534555,25.1861105 C12.5534555,25.1861105 8.2763089,24.542884 6.18748691,22.6626133 C6.18748691,22.6626133 6.73465969,27.0665635 13.0011257,28.3034254 C19.2674084,29.5404696 22.6492147,28.1056077 26.1801832,28.8478343 C29.7111518,29.5900608 33.3931152,31.4845525 34.660445,32.8878729 C34.660445,32.8878729 35.1335864,31.025105 34.660445,29.4416519 Z" id="Fill-43"></path>
                </g>
            </g>
            <g id="beagle" transform="translate(0.000000, 29.000000)">
                <path d="M87.2827162,21.884155 C70.290276,40.5653643 61.7906587,71.5564109 48.2004434,118.05062 C34.6034339,164.548225 27.8091755,182.378899 6.56522812,211.24955 C-14.6736236,240.123597 18.460276,307.210597 65.1928836,286.828318 C111.922094,266.446039 145.794869,292.85676 142.450396,211.295388 C139.109319,129.73062 123.813745,21.884155 123.813745,21.884155 C123.813745,21.884155 104.271759,3.20294574 87.2827162,21.884155 Z" id="Fill-161" fill="#453A39"></path>
                <path d="M267.717601,21.884155 C284.708343,40.5653643 293.20796,71.5564109 306.801573,118.05062 C320.395185,164.548225 327.192841,182.378899 348.433391,211.24955 C369.672243,240.123597 336.536645,307.210597 289.807434,286.828318 C243.079922,266.446039 209.20375,292.85676 212.548223,211.295388 C215.892697,129.73062 231.184874,21.884155 231.184874,21.884155 C231.184874,21.884155 250.728558,3.20294574 267.717601,21.884155 Z" id="Fill-162" fill="#453A39"></path>
                <path d="M178.576246,0.0135692216 C178.576246,0.0135692216 112.11481,-2.12040752 97.6668201,47.1342204 C83.2256239,96.3854529 132.888255,233.953104 178.576246,233.953104 C224.265935,233.953104 273.926868,96.3854529 259.482275,47.1342204 C245.03938,-2.12040752 178.576246,0.0135692216 178.576246,0.0135692216 Z" id="Fill-163" fill="#BDAD9E"></path>
                <path d="M158.335062,226.603884 C158.335062,226.603884 158.506617,262.31786 177.854966,262.31786 C197.201617,262.31786 197.37487,226.603884 197.37487,226.603884 C200.909583,205.445767 177.854966,198.627907 177.854966,198.627907 C177.854966,198.627907 154.800349,205.445767 158.335062,226.603884 Z" id="Fill-164" fill="#D38B81"></path>
                <path d="M195.634992,26.4362957 C197.335255,7.75338874 177.601332,10.3032957 177.601332,10.3032957 C177.601332,10.3032957 157.867408,7.75338874 159.565973,26.4362957 C161.264538,45.1158073 183.357767,82.4816213 148.521906,128.337505 C113.686045,174.195086 105.677313,226.232203 135.872695,229.388179 C166.069777,232.547552 177.601332,217.501063 177.601332,195.42111 C177.601332,217.501063 189.131188,232.547552 219.32827,229.388179 C249.525351,226.232203 241.51492,174.195086 206.679059,128.337505 C171.843198,82.4816213 193.939825,45.1158073 195.634992,26.4362957 Z" id="Fill-165" fill="#FFFFFE"></path>
                <path d="M178.572793,171.465116 C178.572793,171.465116 153.739779,175.716093 154.59076,185.903837 C155.440042,196.094977 166.869683,210.526907 178.572793,210.526907 C190.275904,210.526907 201.707243,196.094977 202.553128,185.903837 C203.404109,175.716093 178.572793,171.465116 178.572793,171.465116" id="Fill-166" fill="#453A39"></path>
                <path d="M126.349426,88.2790698 C117.544067,88.2790698 110.406699,95.411 110.406699,104.21514 C110.406699,113.014186 117.544067,120.149512 126.349426,120.149512 C135.153086,120.149512 142.292153,113.014186 142.292153,104.21514 C142.292153,95.411 135.153086,88.2790698 126.349426,88.2790698 Z" id="Fill-167" fill="#232328"></path>
                <path d="M134.387033,95.0697674 C131.462105,95.0697674 129.090909,97.4397209 129.090909,100.364814 C129.090909,103.288209 131.462105,105.658163 134.387033,105.658163 C137.310263,105.658163 139.683158,103.288209 139.683158,100.364814 C139.683158,97.4397209 137.310263,95.0697674 134.387033,95.0697674 Z" id="Fill-168" fill="#FFFFFE"></path>
                <path d="M229.960167,88.2790698 C221.156507,88.2790698 214.019139,95.411 214.019139,104.21514 C214.019139,113.014186 221.156507,120.149512 229.960167,120.149512 C238.765526,120.149512 245.902895,113.014186 245.902895,104.21514 C245.902895,95.411 238.765526,88.2790698 229.960167,88.2790698 Z" id="Fill-169" fill="#232328"></path>
                <path d="M236.302608,95.0697674 C233.375981,95.0697674 231.004785,97.4397209 231.004785,100.364814 C231.004785,103.288209 233.375981,105.658163 236.302608,105.658163 C239.225837,105.658163 241.598732,103.288209 241.598732,100.364814 C241.598732,97.4397209 239.225837,95.0697674 236.302608,95.0697674 Z" id="Fill-170" fill="#FFFFFE"></path>
            </g>
        </g>
    </g>
</svg>
